<svg width="16" height="18" viewBox="0 0 16 18" fill="none" xmlns="http://www.w3.org/2000/svg">
<path d="M14.3703 16.9999H14.3701L10.7349 16.9994C10.4138 16.999 10.1059 16.8621 9.87875 16.6187C9.65165 16.3754 9.5239 16.0455 9.52352 15.7014V11.8071H7.10038V15.7013C7.1 16.0454 6.97225 16.3753 6.74515 16.6187C6.51805 16.862 6.21014 16.9989 5.88896 16.9994L2.25469 17C2.09557 17 1.93801 16.9665 1.791 16.9012C1.64399 16.836 1.5104 16.7404 1.39788 16.6199C1.28536 16.4993 1.19611 16.3562 1.13521 16.1987C1.07431 16.0412 1.04297 15.8724 1.04297 15.7019V8.2008C1.0431 8.01995 1.07844 7.84112 1.14672 7.67572C1.215 7.51033 1.31473 7.36201 1.43953 7.24024L7.49687 1.33952C7.71937 1.12116 8.01015 1.00003 8.31188 1C8.61362 0.99997 8.90442 1.12104 9.12696 1.33935L15.1854 7.24032C15.3101 7.3621 15.4098 7.51042 15.4781 7.67579C15.5463 7.84117 15.5817 8.01997 15.5818 8.2008V15.7019C15.5818 16.0462 15.4542 16.3764 15.227 16.6198C14.9998 16.8632 14.6916 17 14.3703 17V16.9999ZM7.10038 10.5091H9.52352C9.84474 10.5095 10.1527 10.6463 10.3798 10.8897C10.607 11.133 10.7347 11.463 10.7351 11.8071V15.7021L14.3703 15.7019V8.2008L8.31195 2.29992L2.25454 8.20072V15.7019L5.88881 15.7014V11.8071C5.88917 11.463 6.01693 11.133 6.24407 10.8897C6.4712 10.6463 6.77916 10.5095 7.10038 10.5091Z" fill="#BBBBBB" stroke="#444444" stroke-width="0.1"/>
</svg>
