<svg width="21" height="16" viewBox="0 0 21 16" fill="none" xmlns="http://www.w3.org/2000/svg">
<path d="M20.1465 7.78364C19.396 5.84759 18.0932 4.1733 16.399 2.96769C14.7048 1.76208 12.6935 1.078 10.6137 1C8.53397 1.078 6.52269 1.76208 4.82849 2.96769C3.1343 4.1733 1.83145 5.84759 1.08098 7.78364C1.0303 7.92345 1.0303 8.07655 1.08098 8.21636C1.83145 10.1524 3.1343 11.8267 4.82849 13.0323C6.52269 14.2379 8.53397 14.922 10.6137 15C12.6935 14.922 14.7048 14.2379 16.399 13.0323C18.0932 11.8267 19.396 10.1524 20.1465 8.21636C20.1972 8.07655 20.1972 7.92345 20.1465 7.78364ZM10.6137 13.7273C7.23197 13.7273 3.65878 11.2264 2.3635 8C3.65878 4.77364 7.23197 2.27273 10.6137 2.27273C13.9955 2.27273 17.5687 4.77364 18.864 8C17.5687 11.2264 13.9955 13.7273 10.6137 13.7273Z" fill="#BBBBBB" stroke="#BBBBBB" stroke-width="0.2"/>
<path d="M10.6136 4.18164C9.85639 4.18164 9.1162 4.40557 8.48662 4.82512C7.85704 5.24467 7.36634 5.84099 7.07658 6.53867C6.78682 7.23635 6.711 8.00406 6.85872 8.74471C7.00644 9.48537 7.37106 10.1657 7.90648 10.6997C8.44189 11.2337 9.12405 11.5973 9.86669 11.7446C10.6093 11.892 11.3791 11.8164 12.0786 11.5274C12.7782 11.2384 13.3761 10.749 13.7968 10.1211C14.2175 9.49319 14.442 8.75499 14.442 7.99982C14.442 6.98718 14.0386 6.01601 13.3207 5.29996C12.6027 4.58391 11.6289 4.18164 10.6136 4.18164ZM10.6136 10.5453C10.1088 10.5453 9.61533 10.396 9.19561 10.1163C8.77589 9.83659 8.44875 9.43905 8.25558 8.97393C8.0624 8.5088 8.01186 7.997 8.11034 7.50323C8.20882 7.00946 8.4519 6.5559 8.80884 6.19991C9.16578 5.84393 9.62056 5.60149 10.1157 5.50328C10.6107 5.40506 11.1239 5.45547 11.5903 5.64813C12.0567 5.84079 12.4553 6.16705 12.7357 6.58564C13.0162 7.00424 13.1659 7.49638 13.1659 7.99982C13.1659 8.67492 12.897 9.32236 12.4183 9.79973C11.9397 10.2771 11.2905 10.5453 10.6136 10.5453Z" fill="#BBBBBB" stroke="#BBBBBB" stroke-width="0.2"/>
</svg>
