<svg width="15" height="18" viewBox="0 0 15 18" fill="none" xmlns="http://www.w3.org/2000/svg">
<path d="M10.3831 7.99994C10.3831 8.79557 10.0662 9.55862 9.50213 10.1212C8.93802 10.6838 8.17293 10.9999 7.37517 10.9999C6.5774 10.9999 5.81231 10.6838 5.2482 10.1212C4.6841 9.55862 4.36719 8.79557 4.36719 7.99994C4.36719 7.2043 4.6841 6.44126 5.2482 5.87866C5.81231 5.31606 6.5774 5 7.37517 5C8.17293 5 8.93802 5.31606 9.50213 5.87866C10.0662 6.44126 10.3831 7.2043 10.3831 7.99994ZM9.38049 7.99994C9.38049 7.46951 9.16921 6.96082 8.79314 6.58575C8.41707 6.21069 7.90701 5.99998 7.37517 5.99998C6.84332 5.99998 6.33326 6.21069 5.95719 6.58575C5.58112 6.96082 5.36985 7.46951 5.36985 7.99994C5.36985 8.53036 5.58112 9.03905 5.95719 9.41412C6.33326 9.78918 6.84332 9.99989 7.37517 9.99989C7.90701 9.99989 8.41707 9.78918 8.79314 9.41412C9.16921 9.03905 9.38049 8.53036 9.38049 7.99994Z" fill="#BBBBBB" stroke="#BBBBBB" stroke-width="0.4"/>
<path d="M12.3382 12.9551C13.6546 11.6415 14.3941 9.86036 14.3941 8.00319C14.3941 6.14601 13.6546 4.36485 12.3382 3.05129C11.6866 2.40098 10.9128 1.8851 10.0612 1.53313C9.20964 1.18116 8.29684 1 7.37501 1C6.45318 1 5.54038 1.18116 4.68878 1.53313C3.83717 1.8851 3.06346 2.40098 2.41185 3.05129C1.09545 4.36485 0.355957 6.14601 0.355957 8.00319C0.355957 9.86036 1.09545 11.6415 2.41185 12.9551L3.93689 14.4541L5.98532 16.439L6.11868 16.557C6.89574 17.185 8.03376 17.145 8.7657 16.439L11.2072 14.0691L12.3382 12.9551ZM3.11872 3.75628C3.67758 3.19867 4.34111 2.75633 5.07142 2.45454C5.80172 2.15275 6.5845 1.99742 7.37501 1.99742C8.16553 1.99742 8.9483 2.15275 9.67861 2.45454C10.4089 2.75633 11.0724 3.19867 11.6313 3.75628C12.7289 4.8517 13.36 6.32754 13.3929 7.87584C13.4258 9.42414 12.8579 10.9253 11.8078 12.0661L11.6313 12.2501L10.3068 13.5541L8.07086 15.722L7.97661 15.802C7.80325 15.9323 7.59208 16.0028 7.37501 16.0028C7.15794 16.0028 6.94677 15.9323 6.77342 15.802L6.68017 15.722L3.69224 12.8171L3.11872 12.2501L2.94225 12.0671C1.89211 10.9263 1.32424 9.42514 1.35712 7.87684C1.39 6.32854 2.02109 4.8527 3.11872 3.75728V3.75628Z" fill="#BBBBBB" stroke="#BBBBBB" stroke-width="0.4"/>
</svg>
